HIERARCHY
ROOT SpineBase
{
  OFFSET 0.000000 0.000000 0.000000
  CHANNELS 6 Xposition Yposition Zposition Zrotation Xrotation Yrotation
  JOINT SpineMid
  {
    OFFSET 0.000000 31.017356 0.000000
    CHANNELS 3 Zrotation Xrotation Yrotation
    JOINT SpineShoulder
    {
      OFFSET -0.016630 23.051537 -0.834986
      CHANNELS 3 Zrotation Xrotation Yrotation
      JOINT Neck
      {
        OFFSET -0.011103 7.634014 -0.621122
        CHANNELS 3 Zrotation Xrotation Yrotation
        JOINT Head
        {
          OFFSET 3.597025 13.667496 0.832151
          CHANNELS 3 Zrotation Xrotation Yrotation
          End Site
          {
            OFFSET 0 0 0
          }
        }
      }
      JOINT ShoulderLeft
      {
        OFFSET -15.518899 -3.720464 -2.887285
        CHANNELS 3 Zrotation Xrotation Yrotation
        JOINT ElbowLeft
        {
          OFFSET -4.935671 -22.664914 -1.822470
          CHANNELS 3 Zrotation Xrotation Yrotation
          JOINT WristLeft
          {
            OFFSET 4.233898 -19.075978 -11.065524
            CHANNELS 3 Zrotation Xrotation Yrotation
            JOINT HandLeft
            {
              OFFSET 3.126783 -4.795427 -4.465235
              CHANNELS 3 Zrotation Xrotation Yrotation
              JOINT HandTipLeft
              {
                OFFSET 2.525299 -5.626696 -1.372218
                CHANNELS 3 Zrotation Xrotation Yrotation
                End Site
                {
                  OFFSET 0 0 0
                }
              }
              JOINT ThumbLeft
              {
                OFFSET 2.931330 -1.539667 -1.351577
                CHANNELS 3 Zrotation Xrotation Yrotation
                End Site
                {
                  OFFSET 0 0 0
                }
              }
            }
          }
        }
      }
      JOINT ShoulderRight
      {
        OFFSET 16.316786 -4.927305 0.624851
        CHANNELS 3 Zrotation Xrotation Yrotation
        JOINT ElbowRight
        {
          OFFSET 5.167220 -22.222854 3.745787
          CHANNELS 3 Zrotation Xrotation Yrotation
          JOINT WristRight
          {
            OFFSET -3.833316 -15.829100 -15.107754
            CHANNELS 3 Zrotation Xrotation Yrotation
            JOINT HandRight
            {
              OFFSET -4.328599 -4.300848 -3.266048
              CHANNELS 3 Zrotation Xrotation Yrotation
              JOINT HandTipRight
              {
                OFFSET -1.642143 -4.772950 -4.992905
                CHANNELS 3 Zrotation Xrotation Yrotation
                End Site
                {
                  OFFSET 0 0 0
                }
              }
              JOINT ThumbRight
              {
                OFFSET 3.798546 2.008070 -6.413859
                CHANNELS 3 Zrotation Xrotation Yrotation
                End Site
                {
                  OFFSET 0 0 0
                }
              }
            }
          }
        }
      }
    }
  }
  JOINT HipLeft
  {
    OFFSET -8.339572 0.762893 -3.837064
    CHANNELS 3 Zrotation Xrotation Yrotation
    JOINT KneeLeft
    {
      OFFSET -2.025682 -29.918357 11.014643
      CHANNELS 3 Zrotation Xrotation Yrotation
      JOINT AnkleLeft
      {
        OFFSET 0.048968 -21.821299 5.090428
        CHANNELS 3 Zrotation Xrotation Yrotation
        JOINT FootLeft
        {
          OFFSET -0.031843 -4.698145 -11.732926
          CHANNELS 3 Zrotation Xrotation Yrotation
          End Site
          {
            OFFSET 0 0 0
          }
        }
      }
    }
  }
  JOINT HipRight
  {
    OFFSET 7.389176 0.771546 -3.143585
    CHANNELS 3 Zrotation Xrotation Yrotation
    JOINT KneeRight
    {
      OFFSET -0.188402 -30.536576 9.816107
      CHANNELS 3 Zrotation Xrotation Yrotation
      JOINT AnkleRight
      {
        OFFSET 0.678491 -21.681809 5.845526
        CHANNELS 3 Zrotation Xrotation Yrotation
        JOINT FootRight
        {
          OFFSET 0.563887 -4.356346 -13.005575
          CHANNELS 3 Zrotation Xrotation Yrotation
          End Site
          {
            OFFSET 0 0 0
          }
        }
      }
    }
  }
}
MOTION
Frames: 8
Frame Time: 0.033333
48.838718 58.499501 348.536790 -0.000000 0.000000 -2.524527 0.000000 0.000000 2.524527 -0.000000 0.000000 0.000000 -0.000000 0.000000 0.000000 0.000000 0.000000 0.000000 -0.000000 0.000000 0.000000 -0.000000 0.000000 0.000000 -0.000000 0.000000 0.000000 -0.000000 0.000000 0.000000 0.000000 0.000000 0.000000 0.000000 0.000000 0.000000 -0.000000 0.000000 0.000000 -0.000000 0.000000 0.000000 -0.000000 0.000000 0.000000 -0.000000 0.000000 0.000000 0.000000 0.000000 0.000000 0.000000 0.000000 0.000000 0.000000 0.000000 2.524527 -0.000000 0.000000 0.000000 -0.000000 0.000000 0.000000 0.000000 0.000000 0.000000 0.000000 0.000000 2.524527 -0.000000 0.000000 0.000000 -0.000000 0.000000 0.000000 0.000000 0.000000 0.000000
48.848763 58.508518 348.459865 -0.039599 0.075599 -2.391147 0.042719 -0.073881 2.391201 -0.000000 0.000000 0.000000 -0.000000 0.000000 0.000000 0.000000 0.000000 0.000000 -0.000000 0.000000 0.000000 0.921760 1.147040 -0.287156 -0.916185 -1.151497 0.268722 -0.096708 0.741840 0.356729 0.000000 0.000000 0.000000 0.000000 0.000000 0.000000 -0.000000 0.000000 0.000000 -0.000000 0.000000 0.000000 -0.000000 0.000000 0.000000 -0.000000 0.000000 0.000000 0.000000 0.000000 0.000000 0.000000 0.000000 0.000000 0.042719 -0.073881 2.391201 -0.000000 0.000000 0.000000 1.085718 2.992078 -2.590856 0.000000 0.000000 0.000000 0.042719 -0.073881 2.391201 -0.000000 0.000000 0.000000 -0.000000 0.000000 0.000000 0.000000 0.000000 0.000000
48.852308 58.513969 348.395044 -0.082548 0.136428 -2.305716 0.087971 -0.132997 2.305916 -0.000000 0.000000 0.000000 -0.000000 0.000000 0.000000 0.000000 0.000000 0.000000 -0.000000 0.000000 0.000000 1.719604 2.142002 -0.546504 -1.678851 -1.049030 1.170497 -0.134603 0.292859 -0.036070 0.000000 0.000000 0.000000 0.000000 0.000000 0.000000 -0.000000 0.000000 0.000000 -0.000000 0.000000 0.000000 -0.000000 0.000000 0.000000 -0.079882 1.001762 -0.257983 0.000000 0.000000 0.000000 0.000000 0.000000 0.000000 0.087971 -0.132997 2.305916 -0.000000 0.000000 0.000000 1.812759 4.779301 -4.196564 0.000000 0.000000 0.000000 0.087971 -0.132997 2.305916 -0.000000 0.000000 0.000000 -0.000000 0.000000 0.000000 0.000000 0.000000 0.000000
48.849352 58.515853 348.342328 -0.128838 0.182463 -2.268178 0.135959 -0.177221 2.268593 -0.000000 0.000000 0.000000 -0.000000 0.000000 0.000000 0.000000 0.000000 0.000000 0.813253 0.676027 -0.217643 1.580022 2.330204 -0.539150 -2.144440 -1.580852 1.371617 -0.253917 0.517184 0.166019 0.000000 0.000000 0.000000 0.000000 0.000000 0.000000 -0.000000 0.000000 0.000000 -0.000000 0.000000 0.000000 -0.000000 0.000000 0.000000 0.012253 1.326984 -0.463925 0.000000 0.000000 0.000000 0.000000 0.000000 0.000000 0.135959 -0.177221 2.268593 -0.895722 0.122810 -0.207776 3.077205 5.561714 -4.808547 0.000000 0.000000 0.000000 0.135959 -0.177221 2.268593 -0.000000 0.000000 0.000000 -0.000000 0.000000 0.000000 0.000000 0.000000 0.000000
48.839897 58.514170 348.301717 -0.178456 0.213688 -2.278602 0.186812 -0.206423 2.279271 -0.000000 0.000000 0.000000 -0.000000 0.000000 0.000000 0.000000 0.000000 0.000000 0.937770 0.893068 -0.277521 2.026059 2.850611 -0.663352 -2.372010 -2.151948 1.322415 -0.400498 0.797386 0.515315 0.000000 0.000000 0.000000 0.000000 0.000000 0.000000 -0.000000 0.000000 0.000000 -0.000000 0.000000 0.000000 -0.000000 0.000000 0.000000 0.198281 1.519305 -0.723188 0.000000 0.000000 0.000000 0.000000 0.000000 0.000000 0.186812 -0.206423 2.279271 -1.016718 0.106754 -0.236053 3.265054 5.725494 -4.928481 0.000000 0.000000 0.000000 0.186812 -0.206423 2.279271 -0.000000 0.000000 0.000000 -0.000000 0.000000 0.000000 0.000000 0.000000 0.000000
48.823942 58.508921 348.273210 -0.231389 0.230095 -2.337180 0.240581 -0.220465 2.338108 -0.000000 0.000000 0.000000 -0.000000 0.000000 0.000000 0.000000 0.000000 0.000000 0.989003 1.107308 -0.330591 2.443798 3.259724 -0.758327 -2.379797 -2.775792 1.040822 -0.560184 1.126100 0.996357 0.000000 0.000000 0.000000 0.000000 0.000000 0.000000 -0.874337 0.198990 -0.099796 0.460079 0.672750 0.286365 0.410299 -0.872238 -0.178700 0.479756 1.569292 -1.035024 0.000000 0.000000 0.000000 0.000000 0.000000 0.000000 0.240581 -0.220465 2.338108 -1.051125 0.062079 -0.244538 3.055625 5.189655 -4.407987 0.000000 0.000000 0.000000 0.240581 -0.220465 2.338108 -0.000000 0.000000 0.000000 -0.000000 0.000000 0.000000 0.000000 0.000000 0.000000
48.795292 58.503745 348.253707 -0.288977 0.236008 -2.424760 0.298706 -0.223568 2.425938 -0.000000 0.000000 0.000000 -0.000000 0.000000 0.000000 0.000000 0.000000 0.000000 0.819300 1.224852 -0.341618 2.716487 3.600282 -0.713068 -1.967532 -3.877634 0.155869 -1.043674 1.267849 1.643433 0.000000 0.000000 0.000000 0.000000 0.000000 0.000000 -0.975298 0.226781 -0.109989 0.447083 0.907824 0.342439 1.411620 -0.808560 -1.218102 -0.128223 0.618824 -0.118273 0.000000 0.000000 0.000000 0.000000 0.000000 0.000000 0.298706 -0.223568 2.425938 -1.015281 0.037307 -0.236457 2.048511 2.813104 -2.261671 0.000000 0.000000 0.000000 0.298706 -0.223568 2.425938 -0.000000 0.000000 0.000000 -0.000000 0.000000 0.000000 0.000000 0.000000 0.000000
48.762780 58.490112 348.249335 -0.347240 0.226024 -2.549108 0.356952 -0.210352 2.550448 -0.000000 0.000000 0.000000 -0.000000 0.000000 0.000000 0.000000 0.000000 0.000000 0.704215 1.419205 -0.374547 2.946716 3.674195 -0.686346 -1.343151 -4.301192 -0.555222 -0.927804 2.426068 2.621001 0.000000 0.000000 0.000000 0.000000 0.000000 0.000000 -1.025693 0.240544 -0.115087 0.382859 1.216302 0.379863 2.017799 -1.056592 -1.690426 0.570926 -0.408542 -0.555540 0.000000 0.000000 0.000000 0.000000 0.000000 0.000000 0.356952 -0.210352 2.550448 -0.855845 -0.069084 -0.200299 1.128592 0.763981 -0.484892 0.000000 0.000000 0.000000 0.356952 -0.210352 2.550448 -0.637268 -0.791379 -0.200640 0.634554 0.793557 0.191844 0.000000 0.000000 0.000000
